<?xml version="1.0" encoding="UTF-8" standalone="no"?>
<svg
   version="1.1"
   width="16"
   height="16"
   id="svg33"
   viewBox="0 0 595.27557 841.88977"
   sodipodi:docname="Kratos_God_of_War_Logo_2.cdr"
   xmlns:inkscape="http://www.inkscape.org/namespaces/inkscape"
   xmlns:sodipodi="http://sodipodi.sourceforge.net/DTD/sodipodi-0.dtd"
   xmlns="http://www.w3.org/2000/svg"
   xmlns:svg="http://www.w3.org/2000/svg">
  <defs
     id="defs37" />
  <sodipodi:namedview
     id="namedview35"
     pagecolor="#ffffff"
     bordercolor="#666666"
     borderopacity="1.0"
     inkscape:pageshadow="2"
     inkscape:pageopacity="0.0"
     inkscape:pagecheckerboard="0" />
  <g
     id="Layer1000">
    <path
       d="m 313.6157,479.1194 2.6111,-5.3594 6.6984,-1.5965 c 0,0 4.9658,-8.1629 12.9746,-15.9969 4.2974,-4.2041 7.8539,-6.372 15.4086,-10.9138 l -0.2271,12.7714 c 0,0 -3.8603,11.8592 -12.7156,15.0516 -8.8553,3.1925 -18.3914,2.8501 -17.5964,2.8501 0.795,0 -7.1536,3.1935 -7.1536,3.1935 z"
       style="fill:#131510;fill-rule:evenodd"
       id="path2" />
    <path
       d="m 139.0109,461.3134 c 0,0 -19.2431,-18.4726 -8.0037,-44.1292 0,0 0,-5.4732 8.8553,-19.4987 l 0.6812,-8.8942 -19.7543,-15.394 c 0,0 20.4355,11.9735 22.1383,10.9469 l 1.3625,-11.2887 c 0,0 14.6454,-10.605 3.0652,-20.5253 l 22.8201,-76.9707 c 0,0 -3.4061,-5.4737 -0.6812,-16.7624 l 12.2614,-13.6837 -6.131,-18.9888 10.5587,10.0915 16.6886,-13.8544 c 0,0 4.4282,-2.5672 -20.4345,-14.1977 0,0 -24.352,-0.3424 -57.2189,9.5784 l -4.9385,1.3684 c 0,0 7.1521,-17.446 26.2252,-23.9458 0,0 18.3909,-0.1701 40.6997,3.2504 l 21.2872,15.907 5.96,-10.4338 1.3624,-14.8809 16.1794,-10.9469 -6.9821,12.6571 v 2.2239 h 9.0258 l -8.515,2.9075 -6.3009,7.1839 -0.5108,14.5386 37.9758,12.3147 -46.6607,-3.5917 c 0,0 -11.4093,0.3418 -6.3009,8.21 l 10.2172,9.7496 -11.7501,-4.6183 c 0,0 -4.7685,-3.2499 -6.4713,2.0526 0,0 -3.9159,9.067 -14.474,15.5667 0,0 -3.9174,4.1048 -0.8517,10.0915 3.0658,5.9867 -20.5998,92.706 -20.5998,92.706 0,0 -9.5371,12.999 -6.4713,16.42 l 20.7759,-1.3684 c 0,0 -27.9285,6.8416 -27.5876,21.5513 0,0 11.9211,-0.6837 22.4792,-6.1574 0,0 -12.6018,7.184 -9.5365,18.4727 0,0 -10.5582,-16.0782 -17.0295,1.026 0,0 -4.2557,5.6439 -3.0637,11.6306 1.192,5.9867 7.1526,2.2238 7.1526,2.2238 l -11.0695,9.4072 c 0,0 -2.3824,14.0245 3.5658,28.0547 z"
       style="fill:#131510;fill-rule:evenodd"
       id="path4" />
    <path
       d="m 299.1304,661.5852 0.0412,-2.8403 h 4.6321 l -1.4989,-5.7472 0.9536,-3.5576 9.2642,-0.2736 -0.5432,-18.3361 3.5425,-2.4632 -0.2713,-13.5462 10.763,2.5998 3.8145,0.8208 -2.7234,-14.505 0.002,-6.8431 8.5829,-6.705 -1.3598,-12.5904 -19.3456,-1.3679 -2.7238,2.4606 -7.9017,-7.9364 -4.0868,6.2944 h -5.7222 l -4.0868,-2.1891 -6.2669,0.8207 -4.6321,-1.642 -5.1774,-3.284 -4.9044,7.1157 h -3.8144 l -4.9045,-5.4737 -2.7249,7.1157 h -7.3565 l -5.9945,-4.6524 -1.9072,5.4731 -10.0818,0.8213 v 6.2944 l 3.2696,7.6623 v 9.5785 4.6524 l 5.9945,12.3152 7.6294,-4.3788 4.6321,0.2736 4.0868,2.7368 h 8.7194 l 1.6348,-2.7368 4.9045,3.8317 2.7249,0.8207 0.2724,12.8624 2.7253,3.5581 -1.09,4.1053 -4.3597,0.2736 -0.2724,4.3788 h 3.542 l -0.2723,8.21 h 6.2669 l 0.7806,5.227 -1.0937,-0.0548 -6.8117,8.7577 -6.2674,0.2751 -4.3597,-9.5784 -5.7216,10.9463 -3.5421,-7.9359 -7.9017,10.3992 -8.9918,0.5471 -1.6348,-12.3147 -8.1741,3.5576 -4.0868,-6.0209 -4.9045,9.0313 -5.7222,-7.3893 -7.084,2.4633 -4.3597,-7.6629 -4.6321,9.852 -6.2669,-4.3788 -5.1769,3.5581 -4.3597,2.4627 -6.5393,-0.5471 -1.8959,8.8854 19.3461,19.9791 0.5401,28.7374 7.9017,-0.8208 7.9018,7.937 0.8181,16.6951 5.7217,-7.9364 2.7249,21.346 9.2641,-6.8416 -0.5453,10.6727 5.4498,-1.642 1.0895,10.1261 4.6321,21.8932 5.7222,-17.2413 4.3597,17.2413 0.8171,-9.0313 3.2697,-0.5471 6.2669,18.3356 1.9072,-8.21 6.2669,6.568 h 13.0786 l 22.8875,29.2824 -3.2696,-15.3252 10.6266,10.1256 -4.905,-24.9041 9.2637,-4.1047 5.9945,19.9781 3.8103,-17.1032 9.5366,-13.6832 -7.9018,22.1668 2.7249,4.3788 14.441,-30.1037 5.9946,12.0417 3.2696,-10.6733 8.4465,-8.7571 2.1796,-14.778 6.8122,10.3991 0.2724,-24.63 14.441,9.3049 -0.8176,-5.4732 -8.1742,-10.1261 -1.0895,-7.9359 14.441,9.5779 -5.1773,-14.5039 6.5372,-0.5471 3.8144,-28.1882 15.5311,-15.8728 v -37.766 l -4.6321,6.568 -7.6293,-1.0948 -1.3625,-3.8312 -4.9044,4.6524 -5.9941,15.0516 -17.9835,-0.8207 -7.3565,13.9567 -5.1774,1.0948 -5.4492,-12.8624 -6.8117,11.2204 -5.7221,-15.3256 -1.6349,14.7785 -4.0868,-0.5477 -4.9044,-12.5888 -5.7222,9.3048 -5.7221,-14.778 -4.6321,10.1256 -5.7216,-5.7468 -5.4493,5.7468 -0.5453,-9.0308 z"
       style="fill:#131510;fill-rule:evenodd"
       id="path6" />
    <path
       d="m 141.6636,332.4151 c 0,0 3.1343,-15.3573 16.2777,-15.5889 0,0 52.2882,1.6787 58.8789,21.2906 0,0 1.6436,5.3548 -23.0193,4.6157 l -24.6629,-0.739 c 0,0 -21.3377,-3.6496 -27.4744,-9.5784 z"
       style="fill:#ffffff;fill-rule:evenodd"
       id="path8" />
    <path
       d="m 193.5965,565.6417 c 0,0 35.4219,-33.3877 40.8711,-26.272 0,0 9.2637,-7.6628 28.3368,1.642 l 27.2472,2.1897 2.1796,13.136 c 0,0 2.7249,-18.6097 14.1687,-15.8729 0,0 16.893,-3.8311 39.2357,0 l 31.607,27.9141 c 0,0 8.8569,5.7477 5.3148,-4.9255 -3.542,-10.6733 -31.3325,-41.0526 -31.3325,-41.0526 0,0 -16.893,-10.3997 -43.5954,-2.7369 l -11.3068,0.5472 -6.131,5.1996 h -7.7653 l -7.4929,-3.8312 -17.4383,-1.5055 c 0,0 -9.9454,-13.272 -38.1468,-1.915 -28.2013,11.3569 -25.7519,47.483 -25.7519,47.483 z"
       style="fill:#131510;fill-rule:evenodd"
       id="path10" />
    <path
       d="m 415.0964,547.6485 -2.7244,-15.8723 -5.7221,-12.0412 -0.137,-13.6837 3.2696,-5.1996 -0.2723,-12.0411 -11.1714,-14.778 -0.2719,-16.6952 -7.357,-8.21 -0.2724,-11.494 -15.8034,-25.9979 13.215,-0.2751 -31.8798,-42.8296 -60.2166,-69.2386 -17.4409,-70.0615 c 0,0 3.5425,-30.3777 19.346,-42.1458 l 12.5333,-24.9052 14.1681,-35.3038 17.1654,-42.1453 c 0,0 26.5156,-75.0159 37.4146,-74.5598 10.899,0.4562 48.5906,13.227 93.0944,56.5577 0,0 -42.2326,4.1058 -54.0399,56.1027 -11.8073,51.9968 -9.9912,27.3663 -10.4453,56.1016 l -9.0819,2.7368 c 0,0 -1.8156,16.42 -7.2648,38.7693 0,0 5.9044,24.6295 24.0687,44.6986 l 35.4208,76.1713 c 0,0 12.7172,19.6109 34.0605,85.2914 0,0 -9.9912,10.9463 -20.8897,15.0516 -10.8985,4.1053 -7.2658,10.0346 -7.2658,10.0346 l -23.6141,20.9814 c 0,0 -6.8117,13.2265 -17.8857,74.9807 z"
       style="fill:#951418;fill-rule:evenodd"
       id="path12" />
    <path
       d="m 286.5899,319.7807 c 0,0 24.5224,0.9123 31.7882,36.9453 0,0 3.6332,-26.4541 19.9814,1.3684 0,0 14.5317,-20.0691 14.0775,6.8416 0,0 0.9088,9.1218 17.03,6.3854 0,0 49.2713,4.5604 86.9634,-39.6826 l 25.8848,5.4732 -14.5317,-14.1393 c 0,0 16.3488,-13.6837 2.7249,-25.9985 0,0 -2.2707,-18.2445 22.2516,0 0,0 -7.2663,-53.3642 -47.2286,-41.5056 l -58.5808,25.0856 -24.5229,19.1569 c 0,0 -37.2379,5.9298 -41.7789,13.2275 l -2.7243,-17.3323 c 0,0 -17.7102,-5.9298 -24.5224,9.1223 l -13.6239,-7.2982 7.72,11.8591 z m 68.0854,16.089 c 0,0 -1.8166,1.8241 9.0824,3.6486 10.899,1.8246 64.9394,-6.8415 64.9394,-6.8415 0,0 23.1599,-5.0176 -12.7156,-25.0862 l -3.6327,3.4211 c 0,0 2.2708,20.5252 -19.3002,20.5252 0,0 -10.4453,3.1925 -20.8897,-11.8591 0,0 -15.4399,7.2977 -17.4836,16.1919 z"
       style="fill:#131510;fill-rule:evenodd"
       id="path14" />
    <path
       d="m 95.9097,351.0025 c 0,0 9.0829,2.2807 23.6146,-5.9293 l -0.4542,9.5784 11.8068,-16.42 c 0,0 9.5371,-5.0175 6.358,12.3148 l 0.9083,15.5082 c 0,0 3.6332,-19.6135 8.1742,-14.1398 4.5409,5.4737 6.3575,13.6837 6.3575,13.6837 l 6.3575,-0.2281 13.851,-11.1749 60.852,-0.4561 c 0,0 8.8548,-20.9804 12.9421,-2.5083 l -7.7199,16.8756 c 0,0 11.1255,-5.9293 16.8024,-23.7177 5.6768,-17.7884 23.3875,-19.1563 23.3875,-19.1563 L 261.6639,306.532 c 0,0 -46.5449,3.8756 -53.8107,-10.2637 0,0 -22.2517,-16.42 -23.6141,-23.2616 H 171.524 v 8.6662 l -11.8073,-14.596 -15.4399,-0.9118 -22.2516,-6.3859 -1.8166,10.9468 -13.1698,6.3855 12.2615,8.21 v 28.2791 c 0,0 0.9083,7.2977 -23.3906,37.4019 z m 64.3729,-34.0951 c 0,0 0.2271,22.3498 18.1649,20.5252 17.9377,-1.8245 18.3919,-13.9117 18.3919,-13.9117 0,0 14.9852,3.1935 19.9808,14.5959 0,0 4.7686,6.8416 -47.6822,3.8767 0,0 -27.0202,-6.614 -27.4744,-9.5784 -0.4541,-2.9644 6.1305,-16.8762 18.619,-15.5077 z"
       style="fill:#131510;fill-rule:evenodd"
       id="path16" />
    <path
       d="m 267.7876,362.1511 c 0,0 16.0079,27.3668 0.6813,46.8655 0,0 -4.7686,4.7889 -5.7902,35.9187 0,0 -32.0152,-67.3903 -48.3635,-3.4205 0,0 -18.7322,-7.5258 -11.2393,-19.1569 0,0 8.1736,6.1574 15.3261,-15.3939 l 10.5587,1.7107 c 0,0 -1.0221,-5.1308 16.6886,-12.6571 l 1.7028,-16.42 c 0,0 3.7912,26.2679 13.283,26.6822 0,0 6.1335,6.2866 7.1525,-44.1287 z"
       style="fill:#131510;fill-rule:evenodd"
       id="path18" />
    <path
       d="m 314.0694,435.9961 c 0,0 -1.7033,-25.9984 -10.2178,-27.3669 l -6.8117,-6.1573 c 0,0 -2.3835,-11.9724 17.3703,-32.4977 0,0 -2.0441,34.8921 7.8333,31.1292 0,0 9.1962,14.7098 -8.1741,34.8927 z"
       style="fill:#131510;fill-rule:evenodd"
       id="path20" />
    <path
       d="m 227.659,433.1403 c 0,0 5.4498,14.5954 11.1261,7.5258 0,0 6.8122,0.4561 8.6282,8.4381 0,0 10.4444,2.9644 13.3963,5.4731 0,0 4.5415,16.6481 24.9765,25.5423 0,0 9.5361,3.1935 20.6622,-2.7363 l 1.8165,3.6486 -12.3747,4.9032 -19.0731,0.1143 -0.2271,3.7629 -3.6331,0.1138 c 0,0 -10.4449,-16.4195 -19.7544,-25.3137 l -7.947,0.2281 c 0,0 -8.1741,-4.3328 -10.6719,-11.4025 z"
       style="fill:#131510;fill-rule:evenodd"
       id="path22" />
    <path
       d="m 267.3762,493.3223 c 0,0 -10.8995,-15.0516 -45.412,-41.5061 0,0 -3.1786,12.3142 11.8072,19.1563 l 8.8554,8.4386 5.6763,0.9123 c 0,0 7.947,12.9989 19.0731,12.9989 z"
       style="fill:#131510;fill-rule:evenodd"
       id="path24" />
    <path
       d="m 352.7661,420.2194 c 0,0 25.4306,13.4556 25.8848,28.5072 0.4541,15.0516 13.1692,10.0341 13.1692,10.0341 l 0.4541,12.3152 6.3581,10.4907 -15.6676,-11.8591 -8.4012,-12.9989 -14.7587,-18.7007 -5.2227,-11.403 z"
       style="fill:#131510;fill-rule:evenodd"
       id="path26" />
    <path
       d="m 123.9231,196.6881 c 0,0 38.6004,-9.5789 43.5955,-20.0696 l 24.7494,-0.9123 2.2708,-3.8767 c 0,0 -19.0732,-4.1047 -27.7014,0 l -0.0562,1.4822 -22.2521,0.0569 c 0,0 7.6088,-0.0191 -20.606,23.3195 z"
       style="fill:#131510;fill-rule:evenodd;stroke:#1b1918;stroke-width:0.5669;stroke-linecap:butt;stroke-linejoin:miter;stroke-dasharray:none"
       id="path28" />
    <path
       d="m 372.1589,319.6778 c 0,0 8.9151,14.9709 20.8897,11.8591 0,0 20.3475,1.5174 19.3002,-20.5252 l 3.6327,-3.4211 c 0,0 35.1067,19.3058 12.7156,25.0862 0,0 -45.0712,8.4287 -63.7031,6.9905 0,0 -7.0006,5e-4 -10.3187,-3.7976 -3.318,-3.798 17.4836,-16.1919 17.4836,-16.1919 z"
       style="fill:#ffffff;fill-rule:evenodd;stroke:#ffffff;stroke-width:0.5669;stroke-linecap:butt;stroke-linejoin:miter;stroke-dasharray:none"
       id="path30" />
  </g>
</svg>
